<mxfile host="app.diagrams.net" modified="2023-12-13T12:36:01.116Z" agent="Mozilla/5.0 (Windows NT 10.0; Win64; x64) AppleWebKit/537.36 (KHTML, like Gecko) Chrome/120.0.0.0 Safari/537.36 Edg/120.0.0.0" etag="55RcbHuzioOIhdgJbU-r" version="22.1.8" type="github">
  <diagram name="第 1 页" id="6o9e3uD9G6rcUUFUEswL">
    <mxGraphModel dx="996" dy="620" grid="0" gridSize="10" guides="1" tooltips="1" connect="1" arrows="1" fold="1" page="0" pageScale="1" pageWidth="827" pageHeight="1169" math="0" shadow="0">
      <root>
        <mxCell id="0" />
        <mxCell id="1" parent="0" />
        <mxCell id="jQG_aG4T2C6kxS8QdX2V-2" value="" style="strokeWidth=1;html=1;shape=mxgraph.flowchart.annotation_1;align=left;pointerEvents=1;direction=south;fontSize=9;" vertex="1" parent="1">
          <mxGeometry x="228" y="223" width="172" height="50" as="geometry" />
        </mxCell>
        <mxCell id="jQG_aG4T2C6kxS8QdX2V-4" value="" style="strokeWidth=1;html=1;shape=mxgraph.flowchart.annotation_1;align=left;pointerEvents=1;direction=south;fontSize=9;" vertex="1" parent="1">
          <mxGeometry x="400" y="223" width="222" height="50" as="geometry" />
        </mxCell>
        <mxCell id="jQG_aG4T2C6kxS8QdX2V-5" value="论坛软件系统" style="rounded=0;whiteSpace=wrap;html=1;fontSize=9;" vertex="1" parent="1">
          <mxGeometry x="349.25" y="86" width="124" height="36" as="geometry" />
        </mxCell>
        <mxCell id="jQG_aG4T2C6kxS8QdX2V-6" value="个人信息模块" style="rounded=0;whiteSpace=wrap;html=1;fontSize=9;" vertex="1" parent="1">
          <mxGeometry x="189" y="273" width="72" height="29" as="geometry" />
        </mxCell>
        <mxCell id="jQG_aG4T2C6kxS8QdX2V-7" value="&lt;font style=&quot;font-size: 9px;&quot;&gt;修改个人信息&lt;/font&gt;" style="rounded=0;whiteSpace=wrap;html=1;fontSize=9;" vertex="1" parent="1">
          <mxGeometry x="243" y="329" width="57" height="23" as="geometry" />
        </mxCell>
        <mxCell id="jQG_aG4T2C6kxS8QdX2V-8" value="" style="strokeWidth=1;html=1;shape=mxgraph.flowchart.annotation_1;align=left;pointerEvents=1;fontSize=9;" vertex="1" parent="1">
          <mxGeometry x="193" y="302" width="50" height="35" as="geometry" />
        </mxCell>
        <mxCell id="jQG_aG4T2C6kxS8QdX2V-9" value="" style="strokeWidth=1;html=1;shape=mxgraph.flowchart.annotation_1;align=left;pointerEvents=1;fontSize=9;" vertex="1" parent="1">
          <mxGeometry x="193" y="337" width="50" height="47" as="geometry" />
        </mxCell>
        <mxCell id="jQG_aG4T2C6kxS8QdX2V-10" value="&lt;font style=&quot;font-size: 9px;&quot;&gt;社区模块&lt;/font&gt;" style="rounded=0;whiteSpace=wrap;html=1;fontSize=9;" vertex="1" parent="1">
          <mxGeometry x="369" y="273" width="73" height="29" as="geometry" />
        </mxCell>
        <mxCell id="jQG_aG4T2C6kxS8QdX2V-11" value="帖子模块" style="rounded=0;whiteSpace=wrap;html=1;fontSize=9;" vertex="1" parent="1">
          <mxGeometry x="589" y="273" width="64" height="29" as="geometry" />
        </mxCell>
        <mxCell id="jQG_aG4T2C6kxS8QdX2V-14" value="&lt;font style=&quot;font-size: 9px;&quot;&gt;用户注册&lt;/font&gt;" style="rounded=0;whiteSpace=wrap;html=1;fontSize=9;" vertex="1" parent="1">
          <mxGeometry x="243" y="372" width="57" height="23" as="geometry" />
        </mxCell>
        <mxCell id="jQG_aG4T2C6kxS8QdX2V-16" value="&lt;font style=&quot;font-size: 9px;&quot;&gt;加入社区&lt;/font&gt;" style="rounded=0;whiteSpace=wrap;html=1;fontSize=9;" vertex="1" parent="1">
          <mxGeometry x="419" y="329" width="57" height="23" as="geometry" />
        </mxCell>
        <mxCell id="jQG_aG4T2C6kxS8QdX2V-17" value="" style="strokeWidth=1;html=1;shape=mxgraph.flowchart.annotation_1;align=left;pointerEvents=1;fontSize=9;" vertex="1" parent="1">
          <mxGeometry x="369" y="302" width="50" height="35" as="geometry" />
        </mxCell>
        <mxCell id="jQG_aG4T2C6kxS8QdX2V-18" value="" style="strokeWidth=1;html=1;shape=mxgraph.flowchart.annotation_1;align=left;pointerEvents=1;fontSize=9;" vertex="1" parent="1">
          <mxGeometry x="369" y="337" width="50" height="47" as="geometry" />
        </mxCell>
        <mxCell id="jQG_aG4T2C6kxS8QdX2V-19" value="&lt;font style=&quot;font-size: 9px;&quot;&gt;查看社区&lt;/font&gt;" style="rounded=0;whiteSpace=wrap;html=1;fontSize=9;" vertex="1" parent="1">
          <mxGeometry x="419" y="423" width="57" height="23" as="geometry" />
        </mxCell>
        <mxCell id="jQG_aG4T2C6kxS8QdX2V-20" value="退出社区" style="rounded=0;whiteSpace=wrap;html=1;fontSize=9;" vertex="1" parent="1">
          <mxGeometry x="417" y="372" width="57" height="23" as="geometry" />
        </mxCell>
        <mxCell id="jQG_aG4T2C6kxS8QdX2V-21" value="" style="strokeWidth=1;html=1;shape=mxgraph.flowchart.annotation_1;align=left;pointerEvents=1;fontSize=9;" vertex="1" parent="1">
          <mxGeometry x="369" y="384" width="50" height="50" as="geometry" />
        </mxCell>
        <mxCell id="jQG_aG4T2C6kxS8QdX2V-22" value="查看帖子" style="rounded=0;whiteSpace=wrap;html=1;fontSize=9;" vertex="1" parent="1">
          <mxGeometry x="643" y="329" width="57" height="23" as="geometry" />
        </mxCell>
        <mxCell id="jQG_aG4T2C6kxS8QdX2V-23" value="" style="strokeWidth=1;html=1;shape=mxgraph.flowchart.annotation_1;align=left;pointerEvents=1;fontSize=9;" vertex="1" parent="1">
          <mxGeometry x="593" y="302" width="50" height="35" as="geometry" />
        </mxCell>
        <mxCell id="jQG_aG4T2C6kxS8QdX2V-24" value="" style="strokeWidth=1;html=1;shape=mxgraph.flowchart.annotation_1;align=left;pointerEvents=1;fontSize=9;" vertex="1" parent="1">
          <mxGeometry x="593" y="337" width="50" height="47" as="geometry" />
        </mxCell>
        <mxCell id="jQG_aG4T2C6kxS8QdX2V-25" value="发表帖子" style="rounded=0;whiteSpace=wrap;html=1;fontSize=9;" vertex="1" parent="1">
          <mxGeometry x="641" y="372" width="57" height="23" as="geometry" />
        </mxCell>
        <mxCell id="jQG_aG4T2C6kxS8QdX2V-26" value="" style="strokeWidth=1;html=1;shape=mxgraph.flowchart.annotation_1;align=left;pointerEvents=1;fontSize=9;" vertex="1" parent="1">
          <mxGeometry x="593" y="384" width="50" height="50" as="geometry" />
        </mxCell>
        <mxCell id="jQG_aG4T2C6kxS8QdX2V-29" value="&lt;span style=&quot;font-size: 9px;&quot;&gt;给帖子点赞&lt;/span&gt;" style="rounded=0;whiteSpace=wrap;html=1;fontSize=9;" vertex="1" parent="1">
          <mxGeometry x="643" y="423" width="57" height="23" as="geometry" />
        </mxCell>
        <mxCell id="jQG_aG4T2C6kxS8QdX2V-30" value="" style="strokeWidth=1;html=1;shape=mxgraph.flowchart.annotation_1;align=left;pointerEvents=1;fontSize=9;" vertex="1" parent="1">
          <mxGeometry x="593" y="434" width="50" height="50" as="geometry" />
        </mxCell>
        <mxCell id="jQG_aG4T2C6kxS8QdX2V-31" value="&lt;font style=&quot;font-size: 9px;&quot;&gt;删除帖子&lt;/font&gt;" style="rounded=0;whiteSpace=wrap;html=1;fontSize=9;" vertex="1" parent="1">
          <mxGeometry x="643" y="474" width="57" height="23" as="geometry" />
        </mxCell>
        <mxCell id="jQG_aG4T2C6kxS8QdX2V-54" value="用户登录" style="rounded=0;whiteSpace=wrap;html=1;fontSize=9;" vertex="1" parent="1">
          <mxGeometry x="315" y="172" width="57" height="23" as="geometry" />
        </mxCell>
        <mxCell id="jQG_aG4T2C6kxS8QdX2V-55" value="用户注册" style="rounded=0;whiteSpace=wrap;html=1;fontSize=9;" vertex="1" parent="1">
          <mxGeometry x="454.75" y="175" width="57" height="23" as="geometry" />
        </mxCell>
        <mxCell id="jQG_aG4T2C6kxS8QdX2V-58" value="" style="endArrow=none;html=1;rounded=0;exitX=0;exitY=1;exitDx=0;exitDy=0;exitPerimeter=0;fontSize=9;" edge="1" parent="1">
          <mxGeometry width="50" height="50" relative="1" as="geometry">
            <mxPoint x="335.26" y="223" as="sourcePoint" />
            <mxPoint x="335" y="195" as="targetPoint" />
          </mxGeometry>
        </mxCell>
        <mxCell id="jQG_aG4T2C6kxS8QdX2V-61" value="" style="strokeWidth=1;html=1;shape=mxgraph.flowchart.annotation_2;align=left;labelPosition=right;pointerEvents=1;direction=south;" vertex="1" parent="1">
          <mxGeometry x="341.75" y="122" width="139" height="50" as="geometry" />
        </mxCell>
        <mxCell id="jQG_aG4T2C6kxS8QdX2V-65" value="" style="strokeWidth=1;html=1;shape=mxgraph.flowchart.annotation_1;align=left;pointerEvents=1;fontSize=9;" vertex="1" parent="1">
          <mxGeometry x="193" y="384" width="50" height="47" as="geometry" />
        </mxCell>
        <mxCell id="jQG_aG4T2C6kxS8QdX2V-66" value="用户登录" style="rounded=0;whiteSpace=wrap;html=1;fontSize=9;" vertex="1" parent="1">
          <mxGeometry x="243" y="420" width="57" height="23" as="geometry" />
        </mxCell>
      </root>
    </mxGraphModel>
  </diagram>
</mxfile>
